<?xml version="1.0" encoding="UTF-8" standalone="no"?>
<!-- Uploaded to: SVG Repo, www.svgrepo.com, Generator: SVG Repo Mixer Tools -->

<svg
   width="800px"
   height="800px"
   viewBox="0 0 24 24"
   fill="none"
   version="1.1"
   id="svg4"
   sodipodi:docname="activeProfile.svg"
   inkscape:version="1.3.1 (91b66b0783, 2023-11-16)"
   xmlns:inkscape="http://www.inkscape.org/namespaces/inkscape"
   xmlns:sodipodi="http://sodipodi.sourceforge.net/DTD/sodipodi-0.dtd"
   xmlns="http://www.w3.org/2000/svg"
   xmlns:svg="http://www.w3.org/2000/svg">
  <sodipodi:namedview
     id="namedview4"
     pagecolor="#505050"
     bordercolor="#eeeeee"
     borderopacity="1"
     inkscape:showpageshadow="0"
     inkscape:pageopacity="0"
     inkscape:pagecheckerboard="0"
     inkscape:deskcolor="#505050"
     inkscape:zoom="0.491875"
     inkscape:cx="-204.3202"
     inkscape:cy="521.47395"
     inkscape:window-width="1920"
     inkscape:window-height="1001"
     inkscape:window-x="-9"
     inkscape:window-y="-9"
     inkscape:window-maximized="1"
     inkscape:current-layer="g1" />
  <g
     clip-path="url(#clip0_15_82)"
     id="g2">
    <rect
       width="24"
       height="24"
       fill="none"
       id="rect1" />
    <g
       filter="url(#filter0_d_15_82)"
       id="g1">
      <path
         d="M14.3365 12.3466L14.0765 11.9195C13.9082 12.022 13.8158 12.2137 13.8405 12.4092C13.8651 12.6046 14.0022 12.7674 14.1907 12.8249L14.3365 12.3466ZM9.6634 12.3466L9.80923 12.8249C9.99769 12.7674 10.1348 12.6046 10.1595 12.4092C10.1841 12.2137 10.0917 12.022 9.92339 11.9195L9.6634 12.3466ZM4.06161 19.002L3.56544 18.9402L4.06161 19.002ZM19.9383 19.002L20.4345 18.9402L19.9383 19.002ZM16 8.5C16 9.94799 15.2309 11.2168 14.0765 11.9195L14.5965 12.7737C16.0365 11.8971 17 10.3113 17 8.5H16ZM12 4.5C14.2091 4.5 16 6.29086 16 8.5H17C17 5.73858 14.7614 3.5 12 3.5V4.5ZM7.99996 8.5C7.99996 6.29086 9.79082 4.5 12 4.5V3.5C9.23854 3.5 6.99996 5.73858 6.99996 8.5H7.99996ZM9.92339 11.9195C8.76904 11.2168 7.99996 9.948 7.99996 8.5H6.99996C6.99996 10.3113 7.96342 11.8971 9.40342 12.7737L9.92339 11.9195ZM9.51758 11.8683C6.36083 12.8309 3.98356 15.5804 3.56544 18.9402L4.55778 19.0637C4.92638 16.1018 7.02381 13.6742 9.80923 12.8249L9.51758 11.8683ZM3.56544 18.9402C3.45493 19.8282 4.19055 20.5 4.99996 20.5V19.5C4.70481 19.5 4.53188 19.2719 4.55778 19.0637L3.56544 18.9402ZM4.99996 20.5H19V19.5H4.99996V20.5ZM19 20.5C19.8094 20.5 20.545 19.8282 20.4345 18.9402L19.4421 19.0637C19.468 19.2719 19.2951 19.5 19 19.5V20.5ZM20.4345 18.9402C20.0164 15.5804 17.6391 12.8309 14.4823 11.8683L14.1907 12.8249C16.9761 13.6742 19.0735 16.1018 19.4421 19.0637L20.4345 18.9402Z"
         fill="#000000"
         id="path1" />
      <path
         d="m 12.04736,4.5414875 c -2.209178,0 -4.000019,1.7908817 -4.000019,4.0000195 0,1.4479986 0.769049,2.716774 1.923398,3.419472 0.16831,0.1025 0.260733,0.294227 0.236133,0.489727 -0.0247,0.1954 -0.161814,0.358164 -0.350274,0.415664 -2.785417,0.849299 -4.882865,3.276931 -5.251465,6.238828 -0.0259,0.2082 0.147058,0.436289 0.442208,0.436289 H 19.04738 c 0.295099,0 0.467989,-0.228089 0.442089,-0.436289 -0.368599,-2.961897 -2.466009,-5.389529 -5.251406,-6.238828 -0.1885,-0.0575 -0.325615,-0.220264 -0.350215,-0.415664 -0.0247,-0.1955 0.06772,-0.387227 0.236016,-0.489727 1.154399,-0.702698 1.923516,-1.9714834 1.923516,-3.419472 0,-2.2091378 -1.790922,-4.0000195 -4.00002,-4.0000195 z"
         style="fill:#ff0101;stroke:#000000;stroke-width:0.116578"
         id="path21" />
    </g>
  </g>
  <defs
     id="defs4">
    <filter
       id="filter0_d_15_82"
       x="2.55444"
       y="3.5"
       width="18.8911"
       height="19"
       filterUnits="userSpaceOnUse"
       color-interpolation-filters="sRGB">
      <feFlood
         flood-opacity="0"
         result="BackgroundImageFix"
         id="feFlood2" />
      <feColorMatrix
         in="SourceAlpha"
         type="matrix"
         values="0 0 0 0 0 0 0 0 0 0 0 0 0 0 0 0 0 0 127 0"
         result="hardAlpha"
         id="feColorMatrix2" />
      <feOffset
         dy="1"
         id="feOffset2" />
      <feGaussianBlur
         stdDeviation="0.5"
         id="feGaussianBlur2" />
      <feColorMatrix
         type="matrix"
         values="0 0 0 0 0 0 0 0 0 0 0 0 0 0 0 0 0 0 0.1 0"
         id="feColorMatrix3" />
      <feBlend
         mode="normal"
         in2="BackgroundImageFix"
         result="effect1_dropShadow_15_82"
         id="feBlend3" />
      <feBlend
         mode="normal"
         in="SourceGraphic"
         in2="effect1_dropShadow_15_82"
         result="shape"
         id="feBlend4" />
    </filter>
    <clipPath
       id="clip0_15_82">
      <rect
         width="24"
         height="24"
         fill="white"
         id="rect4" />
    </clipPath>
  </defs>
</svg>
